HIERARCHY
ROOT Hips
{
  OFFSET 43.0842 91.1655 101.099
  CHANNELS 6 Xposition Yposition Zposition Zrotation Xrotation Yrotation
  JOINT LeftUpLeg
  {
    OFFSET 8.64259 1.95398 -2.38835
    CHANNELS 3 Zrotation Xrotation Yrotation
    JOINT LeftLeg
    {
      OFFSET 43.7702 0 0
      CHANNELS 3 Zrotation Xrotation Yrotation
      JOINT LeftFoot
      {
        OFFSET 40.6238 0 0
        CHANNELS 3 Zrotation Xrotation Yrotation
        JOINT LeftToeBase
        {
          OFFSET 12.7242 0 0
          CHANNELS 3 Zrotation Xrotation Yrotation
          End Site
          {
            OFFSET 0 0 0
          }
        }
      }
    }
  }
  JOINT RightUpLeg
  {
    OFFSET -8.2249 1.95398 -2.59336
    CHANNELS 3 Zrotation Xrotation Yrotation
    JOINT RightLeg
    {
      OFFSET 43.5653 0 0
      CHANNELS 3 Zrotation Xrotation Yrotation
      JOINT RightFoot
      {
        OFFSET 40.6238 0 0
        CHANNELS 3 Zrotation Xrotation Yrotation
        JOINT RightToeBase
        {
          OFFSET 12.7242 0 0
          CHANNELS 3 Zrotation Xrotation Yrotation
          End Site
          {
            OFFSET 0 0 0
          }
        }
      }
    }
  }
  JOINT Spine
  {
    OFFSET 0.165834 0.87714 6.61349
    CHANNELS 3 Zrotation Xrotation Yrotation
    JOINT Spine1
    {
      OFFSET 7.38963 1.71661e-005 0
      CHANNELS 3 Zrotation Xrotation Yrotation
      JOINT Spine2
      {
        OFFSET 11.9445 1.14441e-005 0
        CHANNELS 3 Zrotation Xrotation Yrotation
        JOINT Spine3
        {
          OFFSET 14.7254 4.19617e-005 0
          CHANNELS 3 Zrotation Xrotation Yrotation
          JOINT Spine4
          {
            OFFSET 10.9679 0 0
            CHANNELS 3 Zrotation Xrotation Yrotation
            JOINT RightShoulder
            {
              OFFSET 2.46616 -1.6653 3.69651
              CHANNELS 3 Zrotation Xrotation Yrotation
              JOINT RightArm
              {
                OFFSET 13.0012 0 0
                CHANNELS 3 Zrotation Xrotation Yrotation
                JOINT RightForeArm
                {
                  OFFSET 28.7848 1.52588e-005 0
                  CHANNELS 3 Zrotation Xrotation Yrotation
                  JOINT RightHand
                  {
                    OFFSET 26.5688 1.52588e-005 0
                    CHANNELS 3 Zrotation Xrotation Yrotation
                    End Site
                    {
                      OFFSET 0 0 0
                    }
                  }
                }
              }
            }
            JOINT LeftShoulder
            {
              OFFSET 2.38034 -1.29275 -3.7523
              CHANNELS 3 Zrotation Xrotation Yrotation
              JOINT LeftArm
              {
                OFFSET 16.3182 6.10351e-005 0
                CHANNELS 3 Zrotation Xrotation Yrotation
                JOINT LeftForeArm
                {
                  OFFSET 27.0901 0 0
                  CHANNELS 3 Zrotation Xrotation Yrotation
                  JOINT LeftHand
                  {
                    OFFSET 24.5451 1.52588e-005 0
                    CHANNELS 3 Zrotation Xrotation Yrotation
                    End Site
                    {
                      OFFSET 0 0 0
                    }
                  }
                }
              }
            }
            JOINT Neck
            {
              OFFSET 5.0226 -0.0266342 0
              CHANNELS 3 Zrotation Xrotation Yrotation
              JOINT Head
              {
                OFFSET 6.69364 2.86102e-005 0
                CHANNELS 3 Zrotation Xrotation Yrotation
                End Site
                {
                  OFFSET 0 0 0
                }
              }
            }
          }
        }
      }
    }
  }
}
MOTION
Frames:	9
Frame Time:	0.0333333
72.7432 87.4232 19.5297 99.4266 -46.1753 102.954 -171.377 25.3997 86.9916 -44.5645 21.3569 -10.792 69.1322 8.35023 19.7857 28.3531 -6.15152 7.98002 -178.717 -21.8506 99.1996 150.048 24.8371 -165.906 120.12 -46.2928 -53.4685 55.333 -7.47336 -68.6511 -0.0763363 6.10961 -88.027 14.6245 0.823498 3.8457 2.94827 0.991844 3.80582 -19.5413 -0.369409 3.91539 0.47136 -0.369404 3.91538 95.9224 -45.6574 -92.252 43.2099 20.2065 -56.4548 -32.0657 -9.54146 -118.417 -7.54419 0.280519 16.9459 -115.972 -61.8516 47.7939 13.5567 34.4887 -51.9563 2.84742 4.58192 -48.9395 17.8322 2.19519 -2.86945 -17.9628 -4.79831 -15.7966 -5.93866 -5.08837 -4.43525 
73.3849 87.7687 17.2855 104.187 -58.4244 105.147 -170.314 23.97 86.0805 -40.1096 15.9356 -13.8314 68.2347 5.7857 21.7848 28.0023 -7.00458 8.37616 -172.837 -22.4535 97.525 147.209 25.1941 -159.252 114.37 -39.3939 -55.5211 59.0586 -14.1255 -70.7844 -0.176429 6.11105 -88.3953 14.6347 0.443567 3.16015 2.96006 0.582173 3.13759 -19.5447 -0.526182 3.14746 0.467949 -0.526177 3.14747 94.8135 -47.8714 -93.7231 38.1671 4.91158 -59.6205 -25.7808 -8.35745 -118.651 -9.08819 -0.274538 18.9114 -116.334 -62.0033 47.421 12.887 30.6955 -52.0328 8.00351 -0.801738 -45.2078 15.5188 1.96333 -3.58965 -14.404 -3.79439 -9.01889 -8.86454 -3.58177 -2.98397 
74.137 88.4396 14.5816 116.389 -72.0247 117.412 -168.858 23.6416 88.0136 -36.9327 10.0802 -15.7995 66.8264 2.391 22.7766 28.432 -6.5565 8.65809 -168.964 -21.3191 96.5558 142.198 29.4441 -150.501 110.034 -34.4094 -56.8508 62.3579 -20.4375 -73.7398 -0.0586804 6.21802 -89.0451 14.4311 0.354007 1.86743 2.75888 0.435836 1.85004 -19.7656 -0.223496 1.88749 0.247092 -0.223487 1.88748 93.2158 -49.5997 -95.9486 30.5328 -6.46353 -61.0966 -21.1894 -7.76659 -117.65 -9.76158 -0.678662 16.9587 -113.958 -61.077 49.926 14.9387 27.8244 -53.4533 12.8864 -7.7763 -39.5527 15.7077 2.08712 -5.42266 -13.2223 -2.57697 -2.94859 -9.27815 -2.40606 -2.65908 
74.5656 88.6372 11.6767 160.819 -80.5449 163.062 -166.028 25.6543 91.334 -38.9163 8.21104 -16.2412 64.6721 -1.90441 22.2555 29.8131 -5.51307 10.1151 -167.018 -21.4613 95.854 145.244 33.5451 -145.894 108.277 -27.6483 -59.3259 61.0729 -18.1717 -80.0834 0.11611 6.63881 -89.6424 13.5945 0.403847 0.663834 1.92349 0.432671 0.645414 -20.6105 0.18567 0.754511 -0.597815 0.185668 0.75451 92.3105 -49.9719 -97.2794 24.6654 -11.9507 -61.9616 -22.195 -6.1761 -118.573 -12.0479 -1.74081 14.1375 -112.204 -59.975 51.6297 16.6339 21.991 -52.7309 16.0154 -11.0692 -37.5427 17.9824 2.39827 -8.03917 -12.5625 -2.01603 0.0228455 -7.80257 -2.01205 -0.591596 
74.9922 88.0658 8.84645 -133.696 -77.2693 -130.873 -161.867 31.1078 94.0687 -44.9841 11.2952 -15.4169 61.4479 -6.38917 20.322 31.3724 -4.813 12.4907 -167.87 -21.093 93.8531 149.422 38.2808 -141.551 105.081 -20.4955 -59.7623 64.7911 -26.4284 -80.2755 0.220958 7.02458 -89.9843 12.8248 0.446337 -0.0219822 1.15397 0.444935 -0.0416047 -21.3818 0.432296 0.113185 -1.36912 0.432305 0.113182 91.8657 -49.0889 -98.1418 21.0463 -16.49 -62.8646 -17.1758 -6.68317 -117.807 -15.6487 -3.17624 12.8439 -108.614 -58.0011 55.3757 14.3673 12.2895 -48.8341 18.4542 -9.74484 -42.3225 19.3341 2.50757 -8.51358 -13.3775 -0.761832 1.75627 -4.35679 -0.811988 2.23084 
75.0373 86.7076 6.41074 -110.858 -69.4728 -108.03 -161.357 38.1806 96.0564 -52.4686 19.2416 -11.5574 59.6544 -7.27576 15.9039 31.7873 -4.76032 13.3199 -167.772 -18.5876 94.7522 143.002 41.866 -131.451 99.7782 -16.9942 -61.5113 72.8331 -40.4265 -75.8553 0.266118 7.17695 -90.0392 12.5204 0.510089 -0.137388 0.849531 0.503552 -0.159704 -21.6864 0.527802 0.0222676 -1.67378 0.5278 0.0222723 92.6549 -49.1522 -96.901 17.6783 -20.2109 -62.8336 -11.4626 -5.92614 -117.392 -15.516 -3.11478 11.7501 -108.143 -57.4834 55.7724 16.2727 1.15158 -44.1934 17.8058 -6.27598 -49.1513 21.3541 2.64965 -9.18515 -14.7081 0.637491 1.74751 -1.80124 0.721908 4.8264 
75.3131 85.0235 4.20223 -103.618 -62.5098 -100.489 -166.985 41.493 99.6961 -56.5781 31.7601 -6.92233 60.3694 -4.36888 13.3897 34.738 0.650755 12.4235 -168.2 -14.5569 94.8097 130.059 45.0965 -120.684 95.055 -14.4505 -64.3449 79.6377 -46.2182 -66.6309 0.101975 7.34581 -90.0547 12.1824 0.176842 -0.12877 0.511447 0.171013 -0.136438 -22.0238 0.207369 -0.0696673 -2.01113 0.207366 -0.0696742 92.7491 -48.2049 -96.9319 16.296 -21.9958 -63.02 -9.97095 -6.01386 -116.924 -17.6911 -3.87771 9.79308 -107.224 -57.4502 56.9635 18.2905 -10.0984 -39.6039 17.367 -3.05257 -56.013 20.943 2.61203 -7.95627 -15.5921 2.23998 3.05219 -0.395821 2.46666 6.631 
76.0885 83.9737 2.91019 -100.273 -54.3743 -96.5958 -173.536 38.5549 103.661 -56.7928 35.1163 -1.624 60.6758 -2.30229 9.45092 38.3441 5.99287 12.8588 -173.606 -9.06819 92.7389 108.362 50.1404 -104.212 93.1125 -10.6482 -65.4581 84.9496 -47.7388 -56.7524 0.114044 7.54707 -90.1719 11.7799 0.146047 -0.358118 0.10887 0.130152 -0.364205 -22.4261 0.246949 -0.297666 -2.41343 0.246927 -0.29768 92.6244 -49.1717 -96.9449 12.3518 -23.6387 -63.5596 -6.72445 -6.18794 -116.032 -19.5242 -4.54002 9.88801 -111.73 -59.9904 52.2351 24.3346 -19.8979 -32.6835 14.9978 -2.63975 -61.3745 19.6282 2.5262 -8.4449 -17.6164 3.97253 5.55392 1.31434 4.50746 8.59139 
76.9924 83.3522 1.84786 -98.2248 -46.9904 -93.3626 -177.107 35.6152 106.394 -57.6044 33.6705 2.14087 61.5232 -0.425758 9.56314 39.2275 9.93792 7.24311 -176.376 0.308771 92.1121 88.6833 52.8934 -97.2471 92.6709 -2.68158 -65.1199 88.0725 -48.7491 -52.027 0.0918199 7.74645 -90.4308 11.3801 -0.0182204 -0.856129 -0.291108 -0.0558727 -0.854505 -22.8241 0.239913 -0.822024 -2.81148 0.239902 -0.822041 92.3341 -50.5978 -97.1253 7.72044 -24.1236 -63.966 -5.97167 -5.76213 -114.957 -20.147 -4.68312 8.39107 -115.27 -61.3107 48.4073 28.3392 -29.7793 -24.8826 12.7621 0.50159 -64.5816 21.3388 2.64195 -8.10728 -18.2729 5.66183 7.58455 2.06357 6.51364 11.6837 
